<svg xmlns="http://www.w3.org/2000/svg" width="512" height="384" viewBox="0 0 512 384">
  <defs>
    <linearGradient id="bg" x1="0" y1="0" x2="1" y2="1">
      <stop offset="0" stop-color="#0f172a"/>
      <stop offset="1" stop-color="#1e1b4b"/>
    </linearGradient>
    <linearGradient id="alien" x1="0" y1="0" x2="0" y2="1">
      <stop offset="0" stop-color="#a78bfa"/>
      <stop offset="1" stop-color="#6d28d9"/>
    </linearGradient>
  </defs>
  <rect width="512" height="384" fill="url(#bg)"/>
  <g stroke="#312e81" stroke-width="1.5" opacity="0.4">
    <line x1="0" y1="96" x2="512" y2="96"/><line x1="0" y1="192" x2="512" y2="192"/>
    <line x1="0" y1="288" x2="512" y2="288"/>
    <line x1="128" y1="0" x2="128" y2="384"/><line x1="256" y1="0" x2="256" y2="384"/>
    <line x1="384" y1="0" x2="384" y2="384"/>
  </g>
  <g fill="url(#alien)">
    <g transform="translate(60,48)">
      <rect x="0" y="8" width="12" height="12"/><rect x="24" y="8" width="12" height="12"/>
      <rect x="8" y="4" width="20" height="8"/><rect x="12" y="0" width="12" height="6"/>
      <rect x="4" y="20" width="4" height="8"/><rect x="28" y="20" width="4" height="8"/>
    </g>
    <g transform="translate(130,48) scale(1.1)">
      <rect x="0" y="8" width="12" height="12"/><rect x="24" y="8" width="12" height="12"/>
      <rect x="8" y="4" width="20" height="8"/><rect x="12" y="0" width="12" height="6"/>
      <rect x="4" y="20" width="4" height="8"/><rect x="28" y="20" width="4" height="8"/>
    </g>
    <g transform="translate(200,48)">
      <rect x="0" y="8" width="12" height="12"/><rect x="24" y="8" width="12" height="12"/>
      <rect x="8" y="4" width="20" height="8"/><rect x="12" y="0" width="12" height="6"/>
      <rect x="4" y="20" width="4" height="8"/><rect x="28" y="20" width="4" height="8"/>
    </g>
    <g transform="translate(270,48) scale(1.1)">
      <rect x="0" y="8" width="12" height="12"/><rect x="24" y="8" width="12" height="12"/>
      <rect x="8" y="4" width="20" height="8"/><rect x="12" y="0" width="12" height="6"/>
      <rect x="4" y="20" width="4" height="8"/><rect x="28" y="20" width="4" height="8"/>
    </g>
    <g transform="translate(340,48)">
      <rect x="0" y="8" width="12" height="12"/><rect x="24" y="8" width="12" height="12"/>
      <rect x="8" y="4" width="20" height="8"/><rect x="12" y="0" width="12" height="6"/>
      <rect x="4" y="20" width="4" height="8"/><rect x="28" y="20" width="4" height="8"/>
    </g>
    <g transform="translate(410,48) scale(1.1)">
      <rect x="0" y="8" width="12" height="12"/><rect x="24" y="8" width="12" height="12"/>
      <rect x="8" y="4" width="20" height="8"/><rect x="12" y="0" width="12" height="6"/>
      <rect x="4" y="20" width="4" height="8"/><rect x="28" y="20" width="4" height="8"/>
    </g>
    <g transform="translate(60,108) scale(0.9)">
      <rect x="2" y="6" width="32" height="16"/><rect x="6" y="2" width="24" height="6"/>
      <rect x="0" y="22" width="6" height="8"/><rect x="30" y="22" width="6" height="8"/>
      <circle cx="12" cy="12" r="3" fill="#0f172a"/><circle cx="24" cy="12" r="3" fill="#0f172a"/>
    </g>
    <g transform="translate(200,108) scale(0.9)">
      <rect x="2" y="6" width="32" height="16"/><rect x="6" y="2" width="24" height="6"/>
      <rect x="0" y="22" width="6" height="8"/><rect x="30" y="22" width="6" height="8"/>
      <circle cx="12" cy="12" r="3" fill="#0f172a"/><circle cx="24" cy="12" r="3" fill="#0f172a"/>
    </g>
    <g transform="translate(340,108) scale(0.9)">
      <rect x="2" y="6" width="32" height="16"/><rect x="6" y="2" width="24" height="6"/>
      <rect x="0" y="22" width="6" height="8"/><rect x="30" y="22" width="6" height="8"/>
      <circle cx="12" cy="12" r="3" fill="#0f172a"/><circle cx="24" cy="12" r="3" fill="#0f172a"/>
    </g>
    <g transform="translate(130,168) scale(1)">
      <path d="M8 0 L28 0 L36 14 L0 14 Z"/>
      <rect x="14" y="8" width="8" height="22"/>
      <circle cx="18" cy="6" r="5" fill="#e0f2fe"/>
    </g>
    <g transform="translate(270,168) scale(1)">
      <path d="M8 0 L28 0 L36 14 L0 14 Z"/>
      <rect x="14" y="8" width="8" height="22"/>
      <circle cx="18" cy="6" r="5" fill="#e0f2fe"/>
    </g>
    <g transform="translate(410,168) scale(1)">
      <path d="M8 0 L28 0 L36 14 L0 14 Z"/>
      <rect x="14" y="8" width="8" height="22"/>
      <circle cx="18" cy="6" r="5" fill="#e0f2fe"/>
    </g>
  </g>
  <g>
    <rect x="240" y="268" width="32" height="10" rx="2" fill="#22d3ee"/>
    <rect x="232" y="278" width="48" height="14" rx="3" fill="#e0f2fe"/>
    <rect x="236" y="278" width="40" height="14" rx="3" fill="#67e8f9"/>
    <rect x="234" y="292" width="12" height="12" fill="#22d3ee"/>
    <rect x="266" y="292" width="12" height="12" fill="#22d3ee"/>
    <rect x="256" y="252" width="2" height="16" fill="#f472b6"/>
    <rect x="260" y="248" width="2" height="16" fill="#f472b6"/>
  </g>
  <rect x="0" y="330" width="512" height="54" fill="rgba(2,6,23,0.7)"/>
  <text x="256" y="363" font-family="Arial, sans-serif" font-size="26" font-weight="bold" fill="#a78bfa" text-anchor="middle">ANDROMEDA INVADERS</text>

<g transform="translate(0,0)">
  <g>
    <g>
      <rect x="324" y="14" width="176" height="42" rx="10" fill="rgba(9,12,24,0.82)" stroke="rgba(255,255,255,0.16)" stroke-width="1"/>
      <g transform="translate(336,24) scale(0.72)" fill="none">
        <defs>
          <linearGradient id="gvw-bg" x1="0" y1="0" x2="1" y2="1">
            <stop offset="0" stop-color="#8b5cf6"/>
            <stop offset="1" stop-color="#22d3ee"/>
          </linearGradient>
        </defs>
        <rect x="0" y="0" width="34" height="34" rx="9" fill="url(#gvw-bg)"/>
        <rect x="7" y="9" width="20" height="16" rx="4" fill="#ffffff"/>
        <rect x="12" y="12" width="3" height="9" rx="1" fill="#0f172a"/>
        <rect x="10" y="16" width="8" height="3" rx="1" fill="#0f172a"/>
        <circle cx="22" cy="17" r="1.6" fill="#0f172a"/>
        <circle cx="25" cy="17" r="1.6" fill="#0f172a"/>
      </g>
      <text x="368" y="41" font-family="Arial, sans-serif" font-size="17" font-weight="800" fill="#ffffff">Game</text>
      <text x="416" y="41" font-family="Arial, sans-serif" font-size="17" font-weight="800" fill="#22d3ee">Verse</text>
    </g>
  </g>
</g></svg>
