<svg xmlns="http://www.w3.org/2000/svg" width="512" height="384" viewBox="0 0 512 384">
  <defs>
    <linearGradient id="bg" x1="0" y1="0" x2="1" y2="1">
      <stop offset="0" stop-color="#0a1128"/>
      <stop offset="1" stop-color="#060914"/>
    </linearGradient>
    <radialGradient id="core" cx="0.35" cy="0.35" r="1">
      <stop offset="0" stop-color="#a78bfa"/>
      <stop offset="1" stop-color="#3b0764"/>
    </radialGradient>
  </defs>
  <rect width="512" height="384" fill="url(#bg)"/>
  <g fill="#e2e8f0" opacity="0.6">
    <circle cx="40" cy="50" r="1.4"/><circle cx="120" cy="30" r="1"/><circle cx="470" cy="70" r="1.6"/>
    <circle cx="300" cy="22" r="1"/><circle cx="70" cy="180" r="1.2"/><circle cx="460" cy="200" r="1.3"/>
    <circle cx="200" cy="340" r="1"/><circle cx="420" cy="330" r="1.5"/><circle cx="20" cy="300" r="1"/>
  </g>
  <g transform="translate(256,180)">
    <polygon points="-58,-52 -12,-66 40,-48 66,-8 46,42 -4,62 -52,46 -68,4" fill="url(#core)" stroke="#c4b5fd" stroke-width="4"/>
    <ellipse cx="-16" cy="-12" rx="18" ry="12" fill="#1e1b4b" opacity="0.55"/>
    <ellipse cx="20" cy="26" rx="12" ry="9" fill="#1e1b4b" opacity="0.55"/>
    <ellipse cx="28" cy="-26" rx="8" ry="6" fill="#1e1b4b" opacity="0.55"/>
    <line x1="-40" y1="12" x2="44" y2="-14" stroke="#c4b5fd" stroke-width="3" opacity="0.55"/>
  </g>
  <g fill="#3b475f" stroke="#161f36" stroke-width="2">
    <circle cx="92" cy="92" r="16"/><circle cx="432" cy="120" r="12"/><circle cx="120" cy="290" r="10"/>
    <circle cx="400" cy="292" r="14"/>
  </g>
  <circle cx="256" cy="150" r="30" fill="#fde047" opacity="0" />
  <g fill="#fde047">
    <path d="M256 92 l4 12 12 4 -12 4 -4 12 -4 -12 -12 -4 12 -4 z"/>
    <circle cx="88" cy="208" r="3"/><circle cx="428" cy="220" r="3"/><circle cx="150" cy="60" r="2.4"/>
  </g>
  <rect x="0" y="330" width="512" height="54" fill="rgba(2,6,23,0.7)"/>
  <text x="256" y="363" font-family="Arial, sans-serif" font-size="25" font-weight="bold" fill="#fbbf24" text-anchor="middle">NEBULA GRINDER</text>
  <g transform="translate(324,14)">
    <rect width="176" height="42" rx="10" fill="rgba(9,12,24,0.82)" stroke="rgba(255,255,255,0.16)" stroke-width="1"/>
    <g transform="translate(12,5) scale(0.72)" fill="none">
      <defs><linearGradient id="gvw-bg" x1="0" y1="0" x2="1" y2="1"><stop offset="0" stop-color="#8b5cf6"/><stop offset="1" stop-color="#22d3ee"/></linearGradient></defs>
      <rect x="0" y="0" width="34" height="34" rx="9" fill="url(#gvw-bg)"/>
      <rect x="7" y="9" width="20" height="16" rx="4" fill="#ffffff"/>
      <rect x="12" y="12" width="3" height="9" rx="1" fill="#0f172a"/>
      <rect x="10" y="16" width="8" height="3" rx="1" fill="#0f172a"/>
      <circle cx="22" cy="17" r="1.6" fill="#0f172a"/><circle cx="25" cy="17" r="1.6" fill="#0f172a"/>
    </g>
    <text x="44" y="27" font-family="Arial, sans-serif" font-size="17" font-weight="800" fill="#ffffff">Game</text>
    <text x="92" y="27" font-family="Arial, sans-serif" font-size="17" font-weight="800" fill="#22d3ee">Verse</text>
  </g>
</svg>
