<svg xmlns="http://www.w3.org/2000/svg" width="512" height="384" viewBox="0 0 512 384">
  <defs>
    <linearGradient id="pitchG" x1="0" y1="0" x2="0" y2="1">
      <stop offset="0" stop-color="#0b2413"/>
      <stop offset="1" stop-color="#0e2a17"/>
    </linearGradient>
    <linearGradient id="titleG" x1="0" y1="0" x2="1" y2="0">
      <stop offset="0" stop-color="#86efac"/>
      <stop offset="1" stop-color="#fbbf24"/>
    </linearGradient>
  </defs>
  <rect x="0" y="0" width="512" height="384" fill="url(#pitchG)"/>
  <g fill="#ffffff" opacity="0.03">
    <rect x="0" y="64" width="64" height="256"/><rect x="128" y="64" width="64" height="256"/>
    <rect x="256" y="64" width="64" height="256"/><rect x="384" y="64" width="64" height="256"/>
  </g>
  <g stroke="rgba(255,255,255,0.28)" stroke-width="3" fill="none">
    <line x1="24" y1="192" x2="488" y2="192"/>
    <circle cx="256" cy="192" r="44"/>
  </g>
  <circle cx="256" cy="192" r="4" fill="rgba(255,255,255,0.35)"/>
  <g stroke="#ffffff" stroke-width="5" fill="none">
    <rect x="204" y="58" width="104" height="22"/>
    <rect x="204" y="304" width="104" height="22"/>
  </g>
  <g stroke="rgba(255,255,255,0.16)" stroke-width="2">
    <line x1="204" y1="58" x2="204" y2="80"/><line x1="242" y1="58" x2="242" y2="80"/>
    <line x1="280" y1="58" x2="280" y2="80"/><line x1="308" y1="58" x2="308" y2="80"/>
    <line x1="204" y1="304" x2="204" y2="326"/><line x1="242" y1="304" x2="242" y2="326"/>
    <line x1="280" y1="304" x2="280" y2="326"/><line x1="308" y1="304" x2="308" y2="326"/>
  </g>
  <g>
    <circle cx="256" cy="252" r="26" fill="#38bdf8" stroke="#0c4a6e" stroke-width="4"/>
    <circle cx="256" cy="240" r="7" fill="#ffffff"/>
    <circle cx="256" cy="132" r="26" fill="#f472b6" stroke="#831843" stroke-width="4"/>
    <circle cx="256" cy="144" r="7" fill="#ffffff"/>
  </g>
  <circle cx="256" cy="192" r="14" fill="#ffffff"/>
  <g fill="#1f2937">
    <circle cx="256" cy="192" r="3"/>
    <circle cx="248" cy="186" r="2.4"/><circle cx="264" cy="186" r="2.4"/>
    <circle cx="248" cy="199" r="2.4"/><circle cx="264" cy="199" r="2.4"/>
  </g>
  <rect x="0" y="0" width="512" height="42" fill="rgba(3,10,6,0.72)"/>
  <text x="256" y="28" text-anchor="middle" fill="url(#titleG)" font-family="system-ui, sans-serif" font-size="25" font-weight="900">PITCH BATTLE</text>
  <g>
    <rect x="398" y="6" width="106" height="18" rx="9" fill="#ffffff"/>
    <text x="451" y="18.5" text-anchor="middle" fill="#0f172a" font-family="system-ui, sans-serif" font-size="10.5" font-weight="800">GAMEVERSE</text>
  </g>
</svg>
