<svg xmlns="http://www.w3.org/2000/svg" width="512" height="384" viewBox="0 0 512 384">
  <defs>
    <linearGradient id="bg" x1="0" y1="0" x2="0" y2="1">
      <stop offset="0" stop-color="#0f172a"/>
      <stop offset="1" stop-color="#312e81"/>
    </linearGradient>
    <linearGradient id="body" x1="0" y1="0" x2="0" y2="1">
      <stop offset="0" stop-color="#7c3aed"/>
      <stop offset="1" stop-color="#4f46e5"/>
    </linearGradient>
  </defs>
  <rect width="512" height="384" fill="url(#bg)"/>
  <g stroke="#334155" stroke-width="1.5" opacity="0.35">
    <line x1="0" y1="96" x2="512" y2="96"/>
    <line x1="0" y1="192" x2="512" y2="192"/>
    <line x1="0" y1="288" x2="512" y2="288"/>
  </g>
  <rect x="0" y="256" width="512" height="128" fill="#111827"/>
  <line x1="0" y1="256" x2="512" y2="256" stroke="#fbbf24" stroke-width="4"/>
  <line x1="150" y1="256" x2="0" y2="384" stroke="#fbbf24" stroke-width="4"/>
  <line x1="362" y1="256" x2="512" y2="384" stroke="#fbbf24" stroke-width="4"/>
  <g stroke="#94a3b8" stroke-width="2.5" opacity="0.7">
    <line x1="256" y1="256" x2="140" y2="384"/>
    <line x1="256" y1="256" x2="372" y2="384"/>
  </g>
  <g>
    <rect x="60" y="120" width="140" height="150" rx="12" fill="url(#body)" stroke="#312e81" stroke-width="3"/>
    <rect x="74" y="132" width="112" height="14" rx="4" fill="#0f172a"/>
    <rect x="78" y="152" width="34" height="30" rx="3" fill="#a5f3fc"/>
    <rect x="118" y="152" width="34" height="30" rx="3" fill="#a5f3fc"/>
    <rect x="158" y="152" width="34" height="30" rx="3" fill="#a5f3fc"/>
    <rect x="72" y="254" width="34" height="20" rx="4" fill="#0b0f1a"/>
    <rect x="154" y="254" width="34" height="20" rx="4" fill="#0b0f1a"/>
  </g>
  <g>
    <circle cx="370" cy="200" r="16" fill="#fbbf24" stroke="#b45309" stroke-width="2"/>
    <rect x="370" y="236" width="26" height="18" rx="3" fill="#7c2d12"/>
    <rect x="374" y="238" width="18" height="6" fill="#fbbf24"/>
    <rect x="374" y="246" width="18" height="6" fill="#fbbf24"/>
  </g>
  <g>
    <circle cx="268" cy="196" r="6" fill="#a78bfa" opacity="0.85"/>
    <circle cx="292" cy="212" r="6" fill="#a78bfa" opacity="0.85"/>
    <circle cx="316" cy="228" r="6" fill="#a78bfa" opacity="0.85"/>
    <circle cx="340" cy="244" r="6" fill="#a78bfa" opacity="0.85"/>
  </g>
  <rect x="0" y="330" width="512" height="54" fill="rgba(2,6,23,0.7)"/>
  <text x="256" y="363" font-family="Arial, sans-serif" font-size="26" font-weight="bold" fill="#22d3ee" text-anchor="middle">SUBWAY RUNNER</text>

<g transform="translate(0,0)">
  <g>
    <g>
      <rect x="324" y="14" width="176" height="42" rx="10" fill="rgba(9,12,24,0.82)" stroke="rgba(255,255,255,0.16)" stroke-width="1"/>
      <g transform="translate(336,24) scale(0.72)" fill="none">
        <defs>
          <linearGradient id="gvw-bg" x1="0" y1="0" x2="1" y2="1">
            <stop offset="0" stop-color="#8b5cf6"/>
            <stop offset="1" stop-color="#22d3ee"/>
          </linearGradient>
        </defs>
        <rect x="0" y="0" width="34" height="34" rx="9" fill="url(#gvw-bg)"/>
        <rect x="7" y="9" width="20" height="16" rx="4" fill="#ffffff"/>
        <rect x="12" y="12" width="3" height="9" rx="1" fill="#0f172a"/>
        <rect x="10" y="16" width="8" height="3" rx="1" fill="#0f172a"/>
        <circle cx="22" cy="17" r="1.6" fill="#0f172a"/>
        <circle cx="25" cy="17" r="1.6" fill="#0f172a"/>
      </g>
      <text x="368" y="41" font-family="Arial, sans-serif" font-size="17" font-weight="800" fill="#ffffff">Game</text>
      <text x="416" y="41" font-family="Arial, sans-serif" font-size="17" font-weight="800" fill="#22d3ee">Verse</text>
    </g>
  </g>
</g></svg>
